# xmcd
#
# Track frame offsets:
#	150
#	13240
#	24294
#	49665
#	65247
#	84815
#	100310
#	117377
#	135325
#	149360
#	164495
#	179952
#	193975
#	209250
#
# Disc length: 2946 seconds
#
# Revision: 1
# Processed by: cddbd v1.5.2PL0 Copyright (c) Steve Scherf et al.
# Submitted via: audiograbber 1.83.01
#
DISCID=cf0b800e
DTITLE=Rattlesnake - Songbook
DYEAR=1997
DGENRE=Country
TTITLE0=Back to the country
TTITLE1=It's so easy
TTITLE2=Sunday morning coming down
TTITLE3=You never can tell (c'est la vie)
TTITLE4=The river
TTITLE5=Blanket on the ground
TTITLE6=Blue bayou
TTITLE7=Chattahoochee
TTITLE8=Rose garden
TTITLE9=Achy breaky heart
TTITLE10=Teardrops and wine
TTITLE11=Two more bottles of wine
TTITLE12=Desperado
TTITLE13=On the road again
EXTD=
EXTT0=
EXTT1=
EXTT2=
EXTT3=
EXTT4=
EXTT5=
EXTT6=
EXTT7=
EXTT8=
EXTT9=
EXTT10=
EXTT11=
EXTT12=
EXTT13=
PLAYORDER=
